<svg xmlns="http://www.w3.org/2000/svg" width="313.832" height="97" viewBox="0 0 313.832 97">
  <g id="Groupe_236" data-name="Groupe 236" transform="translate(2089 5337.987)">
    <text id="T" transform="translate(-2089 -5267.987)" fill="#e1460f" font-size="89" font-family="MonotypeCorsiva, Monotype Corsiva"><tspan x="0" y="0">T</tspan></text>
    <g id="Groupe_235" data-name="Groupe 235" transform="translate(-1875.842 -5318.547)">
      <path id="Tracé_2" data-name="Tracé 2" d="M798.591,328.47a7.293,7.293,0,0,1,.256-2.1,11.222,11.222,0,0,1,.663-1.549,14.538,14.538,0,0,1,1.27-2.064,6.411,6.411,0,0,1,1.183-1.373,5.864,5.864,0,0,0,.53-.658,1.2,1.2,0,0,1,.3-.258c-.127.285-.1.625-.369.87.213.046.284-.1.364-.195a2.591,2.591,0,0,1,.673-.7,14.235,14.235,0,0,0,2.01-1.857c.725-.641,1.251-1.472,1.927-2.165a4.729,4.729,0,0,0,.347-.365c.592-.753,1.079-1.578,1.618-2.367a5.351,5.351,0,0,0,.656-1.275.968.968,0,0,1,.625-.736c.32-.091.418-.47.3-.843a2.728,2.728,0,0,0,.044-.687c-.07-.256.047-.573-.235-.763l-.015-.106c.074-.214.036-.381-.2-.462l-.1-.238c.053-.154.032-.262-.163-.262-.009-.019-.018-.037-.025-.056.055-.117.021-.162-.107-.128L810.07,308c.081-.215-.076-.207-.209-.221l-.081-.114.019-.275c.133.038.193.157.276.249a4.844,4.844,0,0,1,.98,3.878.054.054,0,0,0-.024.085l-.008.1a.43.43,0,0,0-.064.107,10.962,10.962,0,0,1-1.493,3.232,32.276,32.276,0,0,1-4.066,4.89c-1.115,1.147-2.277,2.251-3.385,3.4a10.881,10.881,0,0,0-1.486,1.965,16.847,16.847,0,0,0-1.555,3.43.9.9,0,0,1-.187.363C798.583,328.913,798.743,328.648,798.591,328.47Z" transform="translate(-783.938 -305.466)" fill="#dd3533"/>
      <path id="Tracé_3" data-name="Tracé 3" d="M815.157,308.447c.283.19.165.507.235.763a2.728,2.728,0,0,1-.045.688c-.1.274-.25.463-.576.367s-.452.09-.528.344a8.518,8.518,0,0,1-.773,1.842,12.608,12.608,0,0,1-.92,1.5,25.63,25.63,0,0,1-2.9,3.321c-.077.07-.153.187-.3.133s-.112-.185-.127-.3l.036-.045.093-.076c.041-.31.321-.449.486-.669a17.54,17.54,0,0,0,1.289-2.051,7.663,7.663,0,0,0,.773-1.915,5.967,5.967,0,0,0-.138-3.791,1.91,1.91,0,0,0-.792-1c-.1-.058-.131-.156-.194-.236a.2.2,0,0,0,.042-.038,6.11,6.11,0,0,1,.689.517c.195-.453.268-.533.516-.573.425-.069.54-.252.43-.682a2.96,2.96,0,0,0-.672-1.091c-.059-.074-.151-.124-.121-.233.035-.13.157-.071.24-.1l.19.06c.034.072.076.08.128.017l.191-.011,0,0c.042.131.144.142.258.129l0,0c.018.072.072.073.131.066l0,0c0,.043.026.062.067.066l0,0a.185.185,0,0,0,.194.129l0,0c.023.063.073.072.131.066l0,0c0,.214.277.181.322.356-.2.11-.391-.213-.6-.014a1.412,1.412,0,0,0,.212.411,4.733,4.733,0,0,1,.453.819,7.7,7.7,0,0,1,.358,1.262c.1.531.52.819.827,1.194a.3.3,0,0,0,.325.062c.137-.033.12-.158.119-.261C815.179,309.13,815.167,308.789,815.157,308.447Z" transform="translate(-788.335 -304.531)" fill="#f15a24"/>
      <path id="Tracé_4" data-name="Tracé 4" d="M806.22,304.776l-.191.01c-.034-.071-.076-.087-.128-.016l-.19-.06c-.2-.227-.9-.345-1.063-.179.162.236.159.235.022.5a.277.277,0,0,0-.039.18,1.064,1.064,0,0,1-.24.92.877.877,0,0,0-.082.522.117.117,0,0,0-.123.031,4.759,4.759,0,0,0-1.706-.283.483.483,0,0,0-.31-.037,7.877,7.877,0,0,0-2.149.441,15.015,15.015,0,0,0-5.471,3.472c-.086.083-.15.214-.305.194.076-.326.354-.516.557-.735.792-.851,1.537-1.747,2.393-2.54.592-.548,1.238-1.031,1.878-1.515a8.594,8.594,0,0,1,2.345-1.214,7.024,7.024,0,0,1,4.08-.116c.028.007.051.037.076.056C805.76,304.583,806.06,304.557,806.22,304.776Z" transform="translate(-782.141 -304.107)" fill="#f15a24"/>
      <path id="Tracé_5" data-name="Tracé 5" d="M781.882,325.068c.707.61,1.369,1.268,2.016,1.94a27.4,27.4,0,0,1,3.432,4.042,10.033,10.033,0,0,1,.98,1.97c.077.209.262.378.238.626-.089.068-.116.016-.154-.063a12.051,12.051,0,0,0-2.1-2.753c-.745-.822-1.547-1.594-2.372-2.341-.913-.827-1.81-1.669-2.722-2.5a27.087,27.087,0,0,1-3.844-3.99,19.222,19.222,0,0,1-1.936-3.149c-.186-.4-.368-.8-.551-1.2a10.038,10.038,0,0,1-.51-1.956,4.966,4.966,0,0,1-.012-1.616c.109.073.072.186.074.285.006.29.006.581.009.872-.009.071-.021.143.047.195l.019.244a4.258,4.258,0,0,0,.275,1.229c.006.022.07.029.106.042a.16.16,0,0,1,0,.055c-.018.092.02.139.114.142l.012.113c.11.317.137.674.439.9h0a.673.673,0,0,0,.074.326c.164.458.494.821.692,1.254s.595.693.767,1.125a.154.154,0,0,0,.191.077l0,0c0,.243.259.346.3.561.03.159.13.2.267.2h0c-.009.137.057.2.192.191l.184.194a2.076,2.076,0,0,0,.821.959l.13.187a.3.3,0,0,0,.095.256c.521.546,1.012,1.125,1.571,1.627a2.234,2.234,0,0,0,1.065.524c-.146-.271-.343-.493-.17-.783l.054-.029.051.05-.009.019.018-.012.06.06-.011.014.014-.011.053.057c0,.008-.015.019-.013.021A.312.312,0,0,0,781.882,325.068Z" transform="translate(-773.892 -308.232)" fill="#f15a24"/>
      <path id="Tracé_6" data-name="Tracé 6" d="M798.541,328.876c.152.177-.008.443.2.624a.9.9,0,0,0,.187-.363,16.844,16.844,0,0,1,1.555-3.43,10.872,10.872,0,0,1,1.486-1.965c1.108-1.154,2.27-2.257,3.385-3.4a32.283,32.283,0,0,0,4.066-4.89,10.963,10.963,0,0,0,1.493-3.232.418.418,0,0,1,.064-.107.446.446,0,0,0,.461-.348,2.99,2.99,0,0,0-.09-2.008c-.155-.487-.521-.86-.672-1.343l.034-.034a2.644,2.644,0,0,1,.787,1.377,5.391,5.391,0,0,1-.162,3.344,13.824,13.824,0,0,1-2.052,3.664,45.99,45.99,0,0,1-4.994,5.394,28.3,28.3,0,0,0-3.381,3.573,13.3,13.3,0,0,0-1.656,2.986c-.187.476-.362.956-.544,1.433a.143.143,0,0,1-.126.111A2.929,2.929,0,0,1,798.541,328.876Z" transform="translate(-783.888 -305.871)" fill="#f15a24"/>
      <path id="Tracé_7" data-name="Tracé 7" d="M774.591,317.831c.184.4.366.8.551,1.2a19.222,19.222,0,0,0,1.936,3.149,27.086,27.086,0,0,0,3.844,3.99c.912.827,1.809,1.669,2.722,2.5.824.747,1.626,1.519,2.372,2.341a12.047,12.047,0,0,1,2.1,2.753c.038.079.065.131.154.063.128.289.038.619.184.908-.286-.371-.446-.81-.745-1.164-.433-.514-.834-1.056-1.295-1.544-1.62-1.714-3.369-3.294-5.142-4.849a33.67,33.67,0,0,1-3.76-3.63,19.745,19.745,0,0,1-3.137-5.031,10.8,10.8,0,0,1-.7-2.356,7.663,7.663,0,0,1-.025-1.649.712.712,0,0,1,.074.459,4.733,4.733,0,0,0,.414,2.107c.1.219.148.46.241.683C774.4,317.82,774.435,318.051,774.591,317.831Z" transform="translate(-773.611 -308.405)" fill="#f15a24"/>
      <path id="Tracé_8" data-name="Tracé 8" d="M775.054,316.051l-.012-.113a.12.12,0,0,0-.114-.142.16.16,0,0,0,0-.055c-.091-.391-.184-.782-.273-1.174a.13.13,0,0,0-.108-.1l-.019-.244a.18.18,0,0,0-.048-.195c0-.291,0-.582-.009-.872,0-.1.035-.212-.074-.285a3.3,3.3,0,0,1,.624-1.72l.1.09c-.621,1.285-.684,3.141-.1,3.512,0-.357-.008-.7,0-1.046a4.28,4.28,0,0,1,.263-2.023c.069.031.063.1.083.157.133.4,0,.816.138,1.22a14.239,14.239,0,0,1,.446,1.538c.068.317.192.622.291.932l.083-.014a4.4,4.4,0,0,1-.053-.991c.167.221.078.489.1.726a9.641,9.641,0,0,0,2.112,4.791c.55.743,1.225,1.374,1.789,2.1-.1.025-.238-.031-.267.147-.045.277-.193.2-.354.093a1.973,1.973,0,0,0-.533-.357l-.13-.187a2.627,2.627,0,0,0-.821-.959l-.184-.194a.188.188,0,0,0-.192-.191h0a1.341,1.341,0,0,0-.566-.763l0,0a3.446,3.446,0,0,0-.318-.741,15.092,15.092,0,0,1-1.155-1.879.3.3,0,0,0-.25-.162h0A1.688,1.688,0,0,0,775.054,316.051Z" transform="translate(-773.934 -307.02)" fill="#f15a24"/>
      <path id="Tracé_9" data-name="Tracé 9" d="M782.694,308.01a7.007,7.007,0,0,0-2.761.313,3,3,0,0,0-1.948,1.813,7.561,7.561,0,0,0-.518,2.74,5.876,5.876,0,0,1-.073-1.21c-.052-.624.025-1.25-.021-1.878a1.066,1.066,0,0,1,.128-.776,6.7,6.7,0,0,0,.418-.7,5.454,5.454,0,0,1,1.626-.673c.087-.023.19-.036.224-.146a9.507,9.507,0,0,1,2.535-.2,5.768,5.768,0,0,1,2.328.6,10.95,10.95,0,0,1,1.925,1.082c.15.1.148.1.018.188-.016-.025-.026-.063-.049-.075a9.57,9.57,0,0,0-3.259-1.068C783.084,307.988,782.882,307.848,782.694,308.01Z" transform="translate(-775.159 -305.422)" fill="#f15a24"/>
      <path id="Tracé_10" data-name="Tracé 10" d="M807.533,320.466c.015.11-.021.24.127.3s.219-.063.3-.133a25.634,25.634,0,0,0,2.9-3.321,12.605,12.605,0,0,0,.92-1.5,8.524,8.524,0,0,0,.773-1.842c.076-.254.21-.438.528-.344s.481-.093.576-.367c.114.373.016.752-.3.843a.967.967,0,0,0-.625.736,5.356,5.356,0,0,1-.656,1.275c-.539.789-1.026,1.614-1.618,2.367a4.718,4.718,0,0,1-.347.365c-.676.693-1.2,1.525-1.927,2.165a14.228,14.228,0,0,1-2.01,1.857,2.59,2.59,0,0,0-.673.7c-.08.094-.151.241-.364.195.264-.245.242-.585.369-.87C806.149,322.057,806.9,321.314,807.533,320.466Z" transform="translate(-786.641 -307.888)" fill="#f15a24"/>
      <path id="Tracé_11" data-name="Tracé 11" d="M777.317,309.027a6.685,6.685,0,0,1-.418.7,1.065,1.065,0,0,0-.128.776c.046.628-.031,1.255.021,1.878a5.872,5.872,0,0,0,.073,1.21.145.145,0,0,1,.025.053,4.4,4.4,0,0,0,.053.991l-.083.014c-.1-.31-.223-.615-.291-.932a14.248,14.248,0,0,0-.446-1.538c-.135-.4-.005-.824-.138-1.22-.02-.059-.014-.126-.083-.157a3.719,3.719,0,0,1,1.183-1.7Z" transform="translate(-774.557 -306.141)" fill="#f15a24"/>
      <path id="Tracé_12" data-name="Tracé 12" d="M782.44,329.692a1.973,1.973,0,0,1,.533.357c.161.109.309.184.354-.093.029-.178.165-.123.267-.147l0,0c-.009.089.035.127.12.124l0,0c0,.049,0,.108.078.079a.058.058,0,0,1,.031.032c-.058.16,0,.207.156.161a.061.061,0,0,1,.031.035c-.023.041-.013.049.026.026a.068.068,0,0,1,.038.037c-.023.041-.012.047.026.025a.066.066,0,0,1,.035.033c-.054.1.005.127.092.135l.189.189c.009.035.026.05.062.029a.058.058,0,0,1,.041.033c-.021.039-.012.048.026.026a.069.069,0,0,1,.037.037c-.02.039-.013.048.026.026a.073.073,0,0,1,.038.038c-.022.038-.013.046.024.023a.078.078,0,0,1,.041.04c-.022.039-.012.045.025.025a.076.076,0,0,1,.038.038c-.021.039-.012.047.025.025a.076.076,0,0,1,.036.032c-.04.147.01.2.16.158l.043.048a.1.1,0,0,0-.045.04c-.173.29.024.512.17.783a2.234,2.234,0,0,1-1.065-.524c-.56-.5-1.05-1.081-1.571-1.627A.3.3,0,0,1,782.44,329.692Z" transform="translate(-777.26 -314.684)" fill="#e95453"/>
      <path id="Tracé_13" data-name="Tracé 13" d="M793.768,312.058c.155.019.219-.111.305-.194a15.015,15.015,0,0,1,5.471-3.472,7.877,7.877,0,0,1,2.149-.44.483.483,0,0,1,.31.037c-.563.117-1.13.219-1.688.355a13.143,13.143,0,0,0-2.282.9,14.583,14.583,0,0,0-1.986,1.22,15.984,15.984,0,0,0-2.715,2.346c-.11.116-.208.242-.242-.042.05,0,.1-.008.116-.065l0,0,.067-.067,0,0,.068-.067,0,0,.068-.067,0,.005a.124.124,0,0,0,.066-.131h0a.192.192,0,0,0,.191-.193l0,0c.045,0,.066-.021.065-.066l0,0c.046,0,.068-.02.065-.066Z" transform="translate(-781.664 -305.693)" fill="#ee9190"/>
      <path id="Tracé_14" data-name="Tracé 14" d="M786.455,308.465c.189-.162.391-.022.573,0a9.569,9.569,0,0,1,3.259,1.068c.024.012.034.049.049.074-.093.115-.173.011-.245-.025a11.321,11.321,0,0,0-3-1C786.877,308.549,786.639,308.647,786.455,308.465Z" transform="translate(-778.921 -305.877)" fill="#ee9190"/>
      <path id="Tracé_15" data-name="Tracé 15" d="M778.023,308.449l-.233.081-.1.045-.083-.094a5.219,5.219,0,0,1,2.264-.852c-.034.11-.137.123-.224.146A5.449,5.449,0,0,0,778.023,308.449Z" transform="translate(-775.264 -305.563)" fill="#ee9190"/>
      <path id="Tracé_16" data-name="Tracé 16" d="M814.2,304.974c-.16-.219-.46-.193-.645-.368a1.349,1.349,0,0,1,.837.2,3.213,3.213,0,0,1,1.088.661l-.026.032c-.133.02-.217-.165-.364-.086h-.131l0,0a.115.115,0,0,0-.131-.066l0,0c-.015-.117-.1-.13-.194-.129l0,0-.067-.066,0,0a.139.139,0,0,0-.131-.066l0,0a.258.258,0,0,0-.258-.129Z" transform="translate(-790.126 -304.305)" fill="#ee9190"/>
      <path id="Tracé_17" data-name="Tracé 17" d="M775.456,310.926a1.074,1.074,0,0,1,.249-.323l.087.074a.47.47,0,0,1-.24.34Z" transform="translate(-774.374 -306.792)" fill="#ee9190"/>
      <path id="Tracé_18" data-name="Tracé 18" d="M784.953,330.469c-.155.046-.214,0-.156-.161A.27.27,0,0,1,784.953,330.469Z" transform="translate(-778.226 -314.938)" fill="#ee9190"/>
      <path id="Tracé_19" data-name="Tracé 19" d="M786.69,332.2c-.15.044-.2-.012-.16-.158A.282.282,0,0,1,786.69,332.2Z" transform="translate(-778.946 -315.654)" fill="#ee9190"/>
      <path id="Tracé_20" data-name="Tracé 20" d="M793.907,315.187a.192.192,0,0,1-.191.193C793.762,315.3,793.751,315.16,793.907,315.187Z" transform="translate(-781.922 -308.686)" fill="#dd3533"/>
      <path id="Tracé_21" data-name="Tracé 21" d="M811.7,308.765a.389.389,0,0,1-.24-.132l.026-.032a.318.318,0,0,1,.256.126A.2.2,0,0,1,811.7,308.765Z" transform="translate(-789.26 -305.965)" fill="#ee9190"/>
      <path id="Tracé_22" data-name="Tracé 22" d="M785.423,330.985c-.086-.008-.146-.033-.091-.135A.13.13,0,0,1,785.423,330.985Z" transform="translate(-778.448 -315.163)" fill="#ee9190"/>
      <path id="Tracé_23" data-name="Tracé 23" d="M811.191,308.478c.033-.042.078-.038.123-.032l.063.089-.026.032Z" transform="translate(-789.146 -305.899)" fill="#ee9190"/>
      <path id="Tracé_24" data-name="Tracé 24" d="M784.534,330.023c-.086,0-.129-.036-.12-.124A.184.184,0,0,1,784.534,330.023Z" transform="translate(-778.076 -314.769)" fill="#ee9190"/>
      <path id="Tracé_25" data-name="Tracé 25" d="M793.654,315.517a.124.124,0,0,1-.066.131C793.53,315.564,793.592,315.54,793.654,315.517Z" transform="translate(-781.86 -308.824)" fill="#dd3533"/>
      <path id="Tracé_26" data-name="Tracé 26" d="M793.206,316.049c-.019.057-.066.062-.116.065C793.1,316.042,793.143,316.027,793.206,316.049Z" transform="translate(-781.664 -309.04)" fill="#dd3533"/>
      <path id="Tracé_27" data-name="Tracé 27" d="M784.705,330.2c-.082.029-.075-.029-.078-.079Z" transform="translate(-778.165 -314.86)" fill="#ee9190"/>
      <path id="Tracé_28" data-name="Tracé 28" d="M776.861,309.577l.125-.073.066.077-.114.084Z" transform="translate(-774.955 -306.338)" fill="#ee9190"/>
      <path id="Tracé_29" data-name="Tracé 29" d="M777.173,309.358a.139.139,0,0,1,.133-.072l.061.073-.117.079Z" transform="translate(-775.083 -306.248)" fill="#ee9190"/>
      <path id="Tracé_30" data-name="Tracé 30" d="M777.493,309.148l.068-.065.083.093-.069.047Z" transform="translate(-775.216 -306.164)" fill="#ee9190"/>
      <path id="Tracé_31" data-name="Tracé 31" d="M785.15,330.669c-.04.022-.049.014-.026-.026A.029.029,0,0,1,785.15,330.669Z" transform="translate(-778.365 -315.077)" fill="#ee9190"/>
      <path id="Tracé_32" data-name="Tracé 32" d="M785.259,330.776c-.038.022-.049.016-.026-.025A.033.033,0,0,1,785.259,330.776Z" transform="translate(-778.411 -315.122)" fill="#ee9190"/>
      <path id="Tracé_33" data-name="Tracé 33" d="M793.346,315.943l-.067.067C793.27,315.957,793.278,315.921,793.346,315.943Z" transform="translate(-781.741 -308.997)" fill="#dd3533"/>
      <path id="Tracé_34" data-name="Tracé 34" d="M785.887,331.431c-.035.022-.053.006-.062-.029Z" transform="translate(-778.66 -315.391)" fill="#ee9190"/>
      <path id="Tracé_35" data-name="Tracé 35" d="M786.019,331.534c-.038.021-.047.013-.026-.026A.031.031,0,0,1,786.019,331.534Z" transform="translate(-778.725 -315.435)" fill="#ee9190"/>
      <path id="Tracé_36" data-name="Tracé 36" d="M786.127,331.642c-.039.022-.047.012-.026-.026A.032.032,0,0,1,786.127,331.642Z" transform="translate(-778.769 -315.479)" fill="#ee9190"/>
      <path id="Tracé_37" data-name="Tracé 37" d="M786.234,331.749c-.038.023-.046.015-.024-.023A.029.029,0,0,1,786.234,331.749Z" transform="translate(-778.814 -315.525)" fill="#ee9190"/>
      <path id="Tracé_38" data-name="Tracé 38" d="M786.344,331.86c-.037.021-.047.015-.025-.025A.03.03,0,0,1,786.344,331.86Z" transform="translate(-778.86 -315.57)" fill="#ee9190"/>
      <path id="Tracé_39" data-name="Tracé 39" d="M786.452,331.966c-.037.022-.046.013-.025-.025A.033.033,0,0,1,786.452,331.966Z" transform="translate(-778.904 -315.614)" fill="#ee9190"/>
      <path id="Tracé_40" data-name="Tracé 40" d="M793.452,315.834l-.068.067C793.368,315.84,793.387,315.814,793.452,315.834Z" transform="translate(-781.783 -308.952)" fill="#dd3533"/>
      <path id="Tracé_41" data-name="Tracé 41" d="M786.808,332.431a.1.1,0,0,1,.045-.04l.009.011Z" transform="translate(-779.067 -315.8)" fill="#ee9190"/>
      <path id="Tracé_42" data-name="Tracé 42" d="M793.559,315.723l-.067.067C793.475,315.729,793.482,315.691,793.559,315.723Z" transform="translate(-781.827 -308.904)" fill="#dd3533"/>
      <path id="Tracé_43" data-name="Tracé 43" d="M786.989,332.5l-.018.011.009-.019Z" transform="translate(-779.134 -315.843)" fill="#ee9190"/>
      <path id="Tracé_44" data-name="Tracé 44" d="M787.1,332.614l-.014.011.011-.014Z" transform="translate(-779.181 -315.891)" fill="#ee9190"/>
      <path id="Tracé_45" data-name="Tracé 45" d="M787.209,332.769a.309.309,0,0,1-.033-.034s.009-.013.014-.021Z" transform="translate(-779.219 -315.933)" fill="#ee9190"/>
      <path id="Tracé_46" data-name="Tracé 46" d="M794.1,315.076c0,.045-.02.067-.065.066C794.018,315.082,794.035,315.055,794.1,315.076Z" transform="translate(-782.052 -308.639)" fill="#dd3533"/>
      <path id="Tracé_47" data-name="Tracé 47" d="M794.206,314.965c0,.046-.019.067-.065.066C794.124,314.97,794.135,314.938,794.206,314.965Z" transform="translate(-782.095 -308.592)" fill="#dd3533"/>
      <path id="Tracé_48" data-name="Tracé 48" d="M775.881,310.554l.063-.069.077.081-.053.062Z" transform="translate(-774.549 -306.744)" fill="#ee9190"/>
      <path id="Tracé_49" data-name="Tracé 49" d="M775.989,310.439l.064-.066.073.079-.059.067Z" transform="translate(-774.594 -306.697)" fill="#ee9190"/>
      <path id="Tracé_50" data-name="Tracé 50" d="M776.1,310.327l.063-.064.073.08-.063.065Z" transform="translate(-774.639 -306.652)" fill="#ee9190"/>
      <path id="Tracé_51" data-name="Tracé 51" d="M776.205,310.218l.064-.064.07.078-.061.066Z" transform="translate(-774.683 -306.607)" fill="#ee9190"/>
      <path id="Tracé_52" data-name="Tracé 52" d="M776.314,310.109l.063-.063.071.078c-.022.021-.043.042-.063.064Z" transform="translate(-774.728 -306.562)" fill="#ee9190"/>
      <path id="Tracé_53" data-name="Tracé 53" d="M776.422,310l.064-.063.073.081-.066.06Z" transform="translate(-774.773 -306.517)" fill="#ee9190"/>
      <path id="Tracé_54" data-name="Tracé 54" d="M776.532,309.9l.063-.059.073.077-.063.064Z" transform="translate(-774.819 -306.476)" fill="#ee9190"/>
      <path id="Tracé_55" data-name="Tracé 55" d="M776.64,309.8l.066-.058.075.075-.068.06Z" transform="translate(-774.863 -306.435)" fill="#ee9190"/>
      <path id="Tracé_56" data-name="Tracé 56" d="M776.752,309.693l.064-.064.076.088-.065.052Z" transform="translate(-774.909 -306.39)" fill="#ee9190"/>
      <path id="Tracé_57" data-name="Tracé 57" d="M777.074,309.465l.059-.056.076.08-.069.053Z" transform="translate(-775.043 -306.299)" fill="#ee9190"/>
      <path id="Tracé_58" data-name="Tracé 58" d="M777.4,309.249l.055-.055.082.075-.076.053Z" transform="translate(-775.177 -306.21)" fill="#ee9190"/>
      <path id="Tracé_59" data-name="Tracé 59" d="M809.382,325.344l-.093.076Z" transform="translate(-788.36 -312.886)" fill="#e95453"/>
      <path id="Tracé_60" data-name="Tracé 60" d="M811.463,306.987l-.063-.089a.876.876,0,0,1,.082-.521,1.064,1.064,0,0,0,.24-.92.277.277,0,0,1,.039-.179c.138-.268.141-.267-.022-.5.164-.165.866-.047,1.063.18-.083.026-.206-.033-.24.1-.029.11.062.159.121.233a2.961,2.961,0,0,1,.672,1.091c.109.431-.006.614-.43.682-.248.04-.321.12-.516.573a6.107,6.107,0,0,0-.689-.517A.318.318,0,0,0,811.463,306.987Z" transform="translate(-789.232 -304.35)" fill="#e95453"/>
      <path id="Tracé_61" data-name="Tracé 61" d="M814.653,305.244a.258.258,0,0,1,.258.129C814.8,305.386,814.695,305.374,814.653,305.244Z" transform="translate(-790.578 -304.577)" fill="#dd3533"/>
      <path id="Tracé_62" data-name="Tracé 62" d="M814.115,305.2c.052-.071.094-.055.128.016C814.191,305.285,814.149,305.277,814.115,305.2Z" transform="translate(-790.355 -304.542)" fill="#e95453"/>
      <path id="Tracé_63" data-name="Tracé 63" d="M776.267,321.031a.3.3,0,0,1,.25.162,15.1,15.1,0,0,0,1.155,1.879,3.454,3.454,0,0,1,.319.741.155.155,0,0,1-.191-.077c-.172-.432-.575-.7-.767-1.125s-.528-.8-.692-1.254A.671.671,0,0,1,776.267,321.031Z" transform="translate(-774.708 -311.103)" fill="#e95453"/>
      <path id="Tracé_64" data-name="Tracé 64" d="M780.821,327.738a2.626,2.626,0,0,1,.821.959A2.076,2.076,0,0,1,780.821,327.738Z" transform="translate(-776.591 -313.876)" fill="#e95453"/>
      <path id="Tracé_65" data-name="Tracé 65" d="M774.648,316.806a.13.13,0,0,1,.108.1c.09.392.182.783.273,1.174-.036-.013-.1-.021-.106-.042A4.262,4.262,0,0,1,774.648,316.806Z" transform="translate(-774.039 -309.357)" fill="#e95453"/>
      <path id="Tracé_66" data-name="Tracé 66" d="M779.214,325.781a1.342,1.342,0,0,1,.566.763c-.137,0-.237-.042-.267-.2C779.473,326.127,779.209,326.024,779.214,325.781Z" transform="translate(-775.927 -313.067)" fill="#e95453"/>
      <path id="Tracé_67" data-name="Tracé 67" d="M775.52,319.5a1.688,1.688,0,0,1,.439.9C775.657,320.176,775.63,319.819,775.52,319.5Z" transform="translate(-774.4 -310.471)" fill="#e95453"/>
      <path id="Tracé_68" data-name="Tracé 68" d="M780.18,327.083a.188.188,0,0,1,.192.191C780.237,327.282,780.172,327.22,780.18,327.083Z" transform="translate(-776.326 -313.605)" fill="#e95453"/>
      <path id="Tracé_69" data-name="Tracé 69" d="M775.3,319.067a.12.12,0,0,1,.114.142C775.323,319.206,775.285,319.159,775.3,319.067Z" transform="translate(-774.309 -310.291)" fill="#e95453"/>
      <path id="Tracé_70" data-name="Tracé 70" d="M774.53,316.058a.18.18,0,0,1,.048.195C774.51,316.2,774.521,316.129,774.53,316.058Z" transform="translate(-773.988 -309.047)" fill="#e95453"/>
      <path id="Tracé_71" data-name="Tracé 71" d="M776.369,309.309l.076-.053.069-.047.1-.045a3.719,3.719,0,0,0-1.183,1.7,4.281,4.281,0,0,0-.263,2.023c-.009.344,0,.689,0,1.046-.585-.371-.522-2.227.1-3.512a.467.467,0,0,0,.241-.339l.053-.062.06-.067.063-.064.061-.066.064-.063.066-.06.063-.063.068-.06.065-.051.114-.084.069-.053Z" transform="translate(-774.086 -306.198)" fill="#fff"/>
    </g>
    <g id="Groupe_234" data-name="Groupe 234" transform="translate(-2032.923 -5311.711)">
      <path id="Tracé_72" data-name="Tracé 72" d="M530.891,359.568a10.135,10.135,0,0,1,3.236-2.926,15.454,15.454,0,0,1,7.551-1.817,7.221,7.221,0,0,1,3.955.893,2.321,2.321,0,0,1,1.239,1.971,1.7,1.7,0,0,1-.739,1.417,3.08,3.08,0,0,1-1.9.554,3.489,3.489,0,0,1-2.357-.862l-1.238-1.047a5.35,5.35,0,0,0-3.476-1.2,4.673,4.673,0,0,0-4.234,2.709,15.539,15.539,0,0,0-1.519,7.542v5.757l.04,2.339a10.619,10.619,0,0,0,.32,3.063,3.159,3.159,0,0,0,1.239,1.615,9.658,9.658,0,0,0,4.114,1.262v.647H519.465v-.647a12.846,12.846,0,0,0,3.436-.69,3.579,3.579,0,0,0,1.678-1.519,5.416,5.416,0,0,0,.619-2.131,35.469,35.469,0,0,0,.18-4.125V364.8a33.092,33.092,0,0,0-.2-4.431,4.1,4.1,0,0,0-.879-2.07,3.933,3.933,0,0,0-1.638-1.242,9.01,9.01,0,0,0-2.757-.475v-.648l10.3-1.109A20.169,20.169,0,0,1,530.891,359.568Z" transform="translate(-519.465 -337.594)" fill="#f9f4f4"/>
      <path id="Tracé_73" data-name="Tracé 73" d="M603.109,378.5l.679.308q-1.438,3.236-6.592,3.237a9.382,9.382,0,0,1-4.721-1.079,9.007,9.007,0,0,1-2.561-2.465,26.83,26.83,0,0,1-4.041,2.434,15.284,15.284,0,0,1-6.041,1.11,12.954,12.954,0,0,1-6.982-1.634,5,5,0,0,1-2.58-4.408,5.321,5.321,0,0,1,2.117-4.285,9.787,9.787,0,0,1,2.757-1.525,32.09,32.09,0,0,1,4.514-1.156q3.476-.678,5.134-1.14a12.032,12.032,0,0,0,2.776-1.11,4.088,4.088,0,0,0,1.758-1.664,6.012,6.012,0,0,0,.479-2.651q0-3.607-1.758-5.271a5.8,5.8,0,0,0-2.057-1.233,7.536,7.536,0,0,0-2.617-.462,6.368,6.368,0,0,0-2.916.647,4.4,4.4,0,0,0-1.918,1.788l-1,1.788a3,3,0,0,1-2.876,1.448,3.672,3.672,0,0,1-2.278-.693,2.1,2.1,0,0,1-.919-1.742q0-1.572,2.881-2.651a21.48,21.48,0,0,1,3.861-.909,29.593,29.593,0,0,1,4.5-.354,28.515,28.515,0,0,1,5.163.493,21.38,21.38,0,0,1,4.482,1.264,5.452,5.452,0,0,1,3.241,2.959,10.578,10.578,0,0,1,.32,3.113v11.4a15.9,15.9,0,0,0,.32,3.945,3.045,3.045,0,0,0,3.276,2.188,4.516,4.516,0,0,0,1.938-.339A6.264,6.264,0,0,0,603.109,378.5Zm-13.223-12.144a28.328,28.328,0,0,1-4.739,2.435q-2.907,1.2-4.022,1.818a10.043,10.043,0,0,0-2.031,1.479,5.584,5.584,0,0,0-1.872,4.161,4.349,4.349,0,0,0,1.454,3.359,5.254,5.254,0,0,0,3.684,1.325,7.6,7.6,0,0,0,3.683-.94,6.377,6.377,0,0,0,2.609-2.512,11.784,11.784,0,0,0,1.235-5.979Z" transform="translate(-540.468 -337.594)" fill="#f9f4f4"/>
      <path id="Tracé_74" data-name="Tracé 74" d="M624.686,355.613h15.5v.678a8.7,8.7,0,0,0-2.4.615,2.056,2.056,0,0,0-1.278,1.971,5.849,5.849,0,0,0,.4,1.939,31.471,31.471,0,0,0,1.471,3.233l6.441,12.652,6.511-13.176a11.358,11.358,0,0,0,1.438-4.341,2.4,2.4,0,0,0-1.238-2.248,7.687,7.687,0,0,0-2.357-.646v-.678H660.2v.678a7.974,7.974,0,0,0-3.6,1.539q-1.719,1.386-3.955,5.819l-9.228,18.163h-2.158l-10.027-19.087a25.174,25.174,0,0,0-3.315-5.326,3.638,3.638,0,0,0-1.239-.723,10.379,10.379,0,0,0-2-.385Z" transform="translate(-562.964 -337.919)" fill="#f9f4f4"/>
      <path id="Tracé_75" data-name="Tracé 75" d="M694.657,364.719q-.16,1.511-.16,2.189a14.1,14.1,0,0,0,1.015,5.239,11.943,11.943,0,0,0,2.768,4.253,12.671,12.671,0,0,0,4.439,2.712,15.766,15.766,0,0,0,5.554.987,14.7,14.7,0,0,0,4.08-.555A9.438,9.438,0,0,0,715.559,378a8.42,8.42,0,0,0,2.468-3.452l.839.215a8.715,8.715,0,0,1-4.454,5.441,19.245,19.245,0,0,1-9.089,1.834,26.171,26.171,0,0,1-8.429-1.2,14.91,14.91,0,0,1-5.952-3.7,11.8,11.8,0,0,1-3.4-8.568q0-6.935,6.432-10.881a19.991,19.991,0,0,1,10.666-2.866,19.131,19.131,0,0,1,5.913.878,12.744,12.744,0,0,1,4.594,2.543,8.3,8.3,0,0,1,2.916,6.473Zm17.418-1.2a9.612,9.612,0,0,0-1.471-4.747,7.483,7.483,0,0,0-2.863-2.389,8.549,8.549,0,0,0-3.818-.879,8.723,8.723,0,0,0-5.984,2.281,9.1,9.1,0,0,0-3.043,5.733Z" transform="translate(-588.95 -337.594)" fill="#f9f4f4"/>
      <path id="Tracé_76" data-name="Tracé 76" d="M741.529,326.56l11.506-1.11v34.373l.04,2.341a10.633,10.633,0,0,0,.32,3.065,3.166,3.166,0,0,0,1.239,1.617,9.658,9.658,0,0,0,4.114,1.262v.647H741.09v-.647a12.8,12.8,0,0,0,3.436-.692,3.587,3.587,0,0,0,1.678-1.523,5.458,5.458,0,0,0,.619-2.139,35.739,35.739,0,0,0,.18-4.14v-24.16a33.381,33.381,0,0,0-.2-4.432,4.135,4.135,0,0,0-.879-2.092,3.811,3.811,0,0,0-1.638-1.231,9.374,9.374,0,0,0-2.757-.462Z" transform="translate(-611.085 -325.45)" fill="#f9f4f4"/>
      <path id="Tracé_77" data-name="Tracé 77" d="M782.309,355.934l11.506-1.109v17.752l.04,2.334a10.569,10.569,0,0,0,.32,3.056,3.151,3.151,0,0,0,1.239,1.613,9.673,9.673,0,0,0,4.114,1.259v.647H781.87v-.647a12.846,12.846,0,0,0,3.436-.69,3.578,3.578,0,0,0,1.678-1.519,5.426,5.426,0,0,0,.619-2.131,35.491,35.491,0,0,0,.179-4.125V364.8a33.183,33.183,0,0,0-.2-4.431,4.107,4.107,0,0,0-.879-2.07,3.932,3.932,0,0,0-1.638-1.242,9,9,0,0,0-2.756-.475Z" transform="translate(-627.944 -337.594)" fill="#f9f4f4"/>
      <path id="Tracé_78" data-name="Tracé 78" d="M827.031,354.825a11.257,11.257,0,0,1,.563,3.347v.5a18.664,18.664,0,0,1,11.786-3.842,16.036,16.036,0,0,1,8.229,1.847,5.706,5.706,0,0,1,3.076,5.172V374.9a10.643,10.643,0,0,0,.319,3.063,3.16,3.16,0,0,0,1.238,1.616,9.665,9.665,0,0,0,4.115,1.262v.647H838.7v-.647a12.805,12.805,0,0,0,3.436-.693,3.585,3.585,0,0,0,1.678-1.523,5.458,5.458,0,0,0,.619-2.139,35.3,35.3,0,0,0,.179-4.11v-6.526a29.1,29.1,0,0,0-.3-4.925,5.234,5.234,0,0,0-1.136-2.525,5.938,5.938,0,0,0-2.63-1.677,11.376,11.376,0,0,0-3.785-.6,12.525,12.525,0,0,0-4.166.677,7.6,7.6,0,0,0-3.049,1.847,5.986,5.986,0,0,0-1.575,2.786,24.508,24.508,0,0,0-.378,5.157v6.033l.04,2.278a10.625,10.625,0,0,0,.319,3.064,3.158,3.158,0,0,0,1.239,1.615,9.658,9.658,0,0,0,4.114,1.262v.647H815.649v-.647a12.839,12.839,0,0,0,3.436-.69,3.576,3.576,0,0,0,1.678-1.519,5.416,5.416,0,0,0,.619-2.131,35.46,35.46,0,0,0,.18-4.125V364.8a33.079,33.079,0,0,0-.2-4.431,4.1,4.1,0,0,0-.879-2.07,3.934,3.934,0,0,0-1.638-1.242,9.011,9.011,0,0,0-2.757-.475v-.648Z" transform="translate(-641.908 -337.594)" fill="#f9f4f4"/>
      <path id="Tracé_79" data-name="Tracé 79" d="M900.193,357.3l7.261-6.133a27.238,27.238,0,0,0,2.992-2.882,3.014,3.014,0,0,0,.758-1.9q0-1.306-1.767-1.823a12.9,12.9,0,0,0-2.852-.334v-.678h15.381v.678a12.141,12.141,0,0,0-4.7.765,21.21,21.21,0,0,0-4.7,3.181l-1.6,1.387-4.349,3.606,10.293,8.939q1.277,1.08,1.676,1.387l1.794,1.418q2.155,1.653,3.112,2.265a14.93,14.93,0,0,0,2.274,1.163,12.787,12.787,0,0,0,3.91.765v.647H910.939v-.647a7.863,7.863,0,0,0,2.379-.428,1.415,1.415,0,0,0,.959-1.283,2.633,2.633,0,0,0-1.159-1.864l-.837-.74-9.655-8.26-2.434,2.061v2.244l.04,2.338a10.587,10.587,0,0,0,.32,3.059,3.155,3.155,0,0,0,1.238,1.614,9.661,9.661,0,0,0,4.115,1.261v.647H888.248v-.647a12.793,12.793,0,0,0,3.435-.692,3.585,3.585,0,0,0,1.678-1.523,5.456,5.456,0,0,0,.619-2.139,35.585,35.585,0,0,0,.18-4.14v-24.16a33.379,33.379,0,0,0-.2-4.432,4.139,4.139,0,0,0-.879-2.092,3.8,3.8,0,0,0-1.638-1.231,9.368,9.368,0,0,0-2.756-.462v-.678l11.505-1.11Z" transform="translate(-671.92 -325.863)" fill="#f9f4f4"/>
    </g>
  </g>
</svg>
